<?xml version="1.0" encoding="utf-8"?>
<!-- Generator: Adobe Illustrator 17.0.0, SVG Export Plug-In . SVG Version: 6.00 Build 0)  -->
<!DOCTYPE svg PUBLIC "-//W3C//DTD SVG 1.1//EN" "http://www.w3.org/Graphics/SVG/1.1/DTD/svg11.dtd">
<svg version="1.1" id="Слой_1" xmlns="http://www.w3.org/2000/svg" xmlns:xlink="http://www.w3.org/1999/xlink" x="0px" y="0px"
	 width="12px" height="13.091px" viewBox="0 0 12 13.091" enable-background="new 0 0 12 13.091" xml:space="preserve">
<path fill="#A8A8A8" d="M0,3.273V1.636c0-0.153,0.053-0.282,0.158-0.388c0.105-0.105,0.234-0.158,0.387-0.158h1.636V0h1.091v1.091
	h5.455V0h1.091v1.091h1.636c0.153,0,0.282,0.053,0.387,0.158C11.947,1.354,12,1.484,12,1.636v1.636H0z M12,4.364v8.182
	c0,0.146-0.053,0.273-0.158,0.381c-0.105,0.109-0.234,0.164-0.387,0.164H0.545c-0.153,0-0.282-0.055-0.387-0.164
	C0.053,12.818,0,12.691,0,12.545V4.364H12z M1.091,7.636h1.091V6.545H1.091V7.636z M1.091,9.818h1.091V8.727H1.091V9.818z M1.091,12
	h1.091v-1.091H1.091V12z M3.273,7.636h1.091V6.545H3.273V7.636z M3.273,9.818h1.091V8.727H3.273V9.818z M3.273,12h1.091v-1.091
	H3.273V12z M5.455,7.636h1.091V6.545H5.455V7.636z M5.455,9.818h1.091V8.727H5.455V9.818z M5.455,12h1.091v-1.091H5.455V12z
	 M7.636,7.636h1.091V6.545H7.636V7.636z M7.636,9.818h1.091V8.727H7.636V9.818z M7.636,12h1.091v-1.091H7.636V12z M9.818,7.636
	h1.091V6.545H9.818V7.636z M9.818,9.818h1.091V8.727H9.818V9.818z M9.818,12h1.091v-1.091H9.818V12z"/>
</svg>
