<?xml version="1.0" encoding="utf-8"?>
<!-- Generator: Adobe Illustrator 17.0.0, SVG Export Plug-In . SVG Version: 6.00 Build 0)  -->
<!DOCTYPE svg PUBLIC "-//W3C//DTD SVG 1.1//EN" "http://www.w3.org/Graphics/SVG/1.1/DTD/svg11.dtd">
<svg version="1.1" id="Слой_1" xmlns="http://www.w3.org/2000/svg" xmlns:xlink="http://www.w3.org/1999/xlink" x="0px" y="0px"
	 width="24.171px" height="24.171px" viewBox="0 0 24.171 24.171" enable-background="new 0 0 24.171 24.171" xml:space="preserve">
<g>
	<path fill="#FFFFFF" d="M24.171,21.29v2.88H0v-2.88l8.057-5.177V14.1c-0.497,0-0.957-0.5-1.38-1.501
		c-0.424-1-0.635-1.843-0.635-2.528V6.043c0-1.665,0.591-3.088,1.773-4.27C8.997,0.591,10.42,0,12.085,0
		c1.665,0,3.088,0.591,4.27,1.773c1.182,1.182,1.773,2.605,1.773,4.27v4.028c0,0.685-0.211,1.528-0.635,2.528
		C17.07,13.6,16.611,14.1,16.114,14.1v2.014L24.171,21.29z"/>
</g>
</svg>
